{"title":"Shanghai Knights 2003 DVDRip [H.264 - MP4 - AAC] ~ Mindbreaker","uid":5462743,"size":1454408069,"categoryP":"video","categoryS":"movies","magnet":"?xt=urn:btih:84d6f68b0221e672843a10802a500c504ba77de6&amp;dn=Shanghai+Knights+2003+DVDRip+%5BH.264+-+MP4+-+AAC%5D+%7E+Mindbreaker&amp;tr=udp%3A%2F%2Ftracker.openbittorrent.com%3A80&amp;tr=udp%3A%2F%2Fopen.demonii.com%3A1337&amp;tr=udp%3A%2F%2Ftracker.coppersurfer.tk%3A6969&amp;tr=udp%3A%2F%2Fexodus.desync.com%3A6969","seeders":0,"leechers":1,"uploader":"mindbreaker3103","files":-1,"time":1269523439,"description":"imdb : http://www.imdb.com/title/tt0300471/\nPlot: When a Chinese rebel murders Chon's estranged father and escapes to England, Chon and Roy make their way to London with revenge on their minds.\nTagline: A Royal Kick In The Arse\nTotal Size : 1.35 GB\n\n[code]General\nComplete name : Shanghai Knights 2003 DVDRip [H.264 - MP4 - AAC] ~ Mindbreaker\nFormat : H.264/AAC/MP4 - Anamophic\nSource : DVD (NmG)\nFile size : 1.35 GiB\nDuration : 1h 50mn\nOverall bit rate : 1 763 Kbps\n\n\nVideo\nID : 1\nFormat : AVC\nFormat/Info : Advanced Video Codec\nFormat profile : &lt;a class=&quot;__cf_email__&quot; href=&quot;/cdn-cgi/l/email-protection&quot; data-cfemail=&quot;8fc2eee6e1cfc3bca1bf&quot;&gt;[email&amp;#160;protected]&lt;/a&gt;&lt;script cf-hash='f9e31' type=&quot;text/javascript&quot;&gt;\n/* &lt;![CDATA[ */!function(){try{var t=&quot;currentScript&quot;in document?document.currentScript:function(){for(var t=document.getElementsByTagName(&quot;script&quot;),e=t.length;e--;)if(t[e].getAttribute(&quot;cf-hash&quot;))return t[e]}();if(t&amp;&amp;t.previousSibling){var e,r,n,i,c=t.previousSibling,a=c.getAttribute(&quot;data-cfemail&quot;);if(a){for(e=&quot;&quot;,r=parseInt(a.substr(0,2),16),n=2;a.length-n;n+=2)i=parseInt(a.substr(n,2),16)^r,e+=String.fromCharCode(i);e=document.createTextNode(e),c.parentNode.replaceChild(e,c)}}}catch(u){}}();/* ]]&gt; */&lt;/script&gt;\nDuration : 1h 50mn\nBit rate : 1 600 Kbps\nWidth : 720 pixels\nHeight : 434 pixels\nDisplay aspect ratio : 2.35:1\nFrame rate : 25.000 fps\nBits/(Pixel*Frame) : 0.205\nStream size : 1.23 GiB (91%)\nWriting library : x264 core 79\n\nAudio\nID : 2\nFormat : AAC\nFormat/Info : Advanced Audio Codec\nFormat profile : LC\nDuration : 1h 50mn\nBit rate : 160 Kbps\nChannel(s) : 2 channels\nSampling rate : 48.0 KHz\nStream size : 125 MiB (9%)\nLanguage : English\n\nSubtitle\nFormat : SubRip\nLanguage : English\nSource : DVD\nNote : Hardcoded English subtitles for non-english speaking parts &lt;a href=&quot;\nhttp://genesis.1337x.org:1337/announce&quot; rel=&quot;nofollow&quot; target=&quot;_NEW&quot;&gt;\nhttp://genesis.1337x.org:1337/announce&lt;/a&gt;\nhttp://tracker.openbittorrent.com/announce\nhttp://trackedbyet.info:420/announce\n\n","torrent":{"xt":"urn:btih:84d6f68b0221e672843a10802a500c504ba77de6","amp;dn":"Shanghai+Knights+2003+DVDRip+%5BH.264+-+MP4+-+AAC%5D+%7E+Mindbreaker","amp;tr":["udp%3A%2F%2Ftracker.openbittorrent.com%3A80","udp%3A%2F%2Fopen.demonii.com%3A1337","udp%3A%2F%2Ftracker.coppersurfer.tk%3A6969","udp%3A%2F%2Fexodus.desync.com%3A6969"],"infoHash":"84d6f68b0221e672843a10802a500c504ba77de6","infoHashBuffer":{"type":"Buffer","data":[132,214,246,139,2,33,230,114,132,58,16,128,42,80,12,80,75,167,125,230]},"announce":[],"urlList":[]}}